<svg width="328" height="318" viewBox="0 0 328 318" fill="none" xmlns="http://www.w3.org/2000/svg">
<path d="M299.173 123.694C299.959 125.522 300.609 127.398 301.118 129.321L300.661 129.442C300.911 130.389 301.127 131.348 301.307 132.319C301.487 133.289 301.63 134.261 301.736 135.236L302.206 135.185C302.421 137.162 302.487 139.146 302.409 141.135L301.937 141.116C301.861 143.065 301.644 145.019 301.292 146.973L301.757 147.057C301.409 148.985 300.931 150.913 300.328 152.837L299.877 152.696C299.298 154.541 298.602 156.385 297.792 158.223L298.225 158.413C297.439 160.198 296.547 161.976 295.554 163.746L295.142 163.515C294.197 165.198 293.159 166.875 292.03 168.541L292.421 168.806C291.329 170.42 290.152 172.024 288.895 173.617L288.524 173.324C287.32 174.848 286.041 176.363 284.69 177.865L285.041 178.181C283.737 179.63 282.366 181.067 280.931 182.491L280.598 182.156C279.218 183.524 277.779 184.88 276.28 186.223L276.596 186.575C275.14 187.879 273.629 189.17 272.066 190.447L271.767 190.081C270.256 191.315 268.695 192.535 267.086 193.74L267.369 194.118C265.801 195.293 264.187 196.454 262.529 197.599L262.26 197.211C260.651 198.323 259 199.42 257.309 200.502L257.563 200.9C255.909 201.958 254.216 203.001 252.487 204.028L252.246 203.622C250.56 204.623 248.839 205.609 247.085 206.578L247.313 206.992C245.591 207.943 243.837 208.879 242.051 209.798L241.835 209.378C240.089 210.277 238.312 211.16 236.506 212.027L236.711 212.453C234.934 213.305 233.13 214.142 231.298 214.961L231.106 214.53C229.309 215.334 227.487 216.121 225.639 216.892L225.821 217.328C224 218.088 222.154 218.831 220.285 219.557L220.114 219.116C218.281 219.828 216.425 220.524 214.547 221.202L214.708 221.646C212.853 222.316 210.977 222.969 209.081 223.604L208.931 223.156C207.063 223.782 205.175 224.391 203.269 224.983L203.409 225.434C201.522 226.019 199.617 226.587 197.694 227.137L197.564 226.683C195.666 227.226 193.751 227.751 191.82 228.259L191.94 228.716C190.026 229.219 188.096 229.704 186.15 230.171L186.04 229.712C184.123 230.172 182.191 230.614 180.245 231.038L180.345 231.5C178.414 231.921 176.469 232.324 174.51 232.708L174.419 232.245C173.445 232.436 172.467 232.623 171.485 232.805C170.504 232.987 169.524 233.163 168.545 233.335L168.627 233.8C166.661 234.144 164.701 234.465 162.747 234.765L162.675 234.299C160.706 234.601 158.744 234.881 156.79 235.139L156.852 235.608C154.868 235.87 152.892 236.109 150.925 236.327L150.873 235.857C148.889 236.076 146.913 236.273 144.947 236.447L144.988 236.917C142.996 237.094 141.014 237.247 139.043 237.378L139.011 236.906C137.02 237.038 135.039 237.147 133.071 237.233L133.091 237.705C131.093 237.792 129.108 237.855 127.137 237.896L127.127 237.423C125.131 237.464 123.15 237.481 121.183 237.474L121.182 237.946C119.176 237.939 117.187 237.908 115.214 237.852L115.228 237.38C113.227 237.324 111.243 237.242 109.278 237.136L109.252 237.608C107.249 237.5 105.264 237.367 103.3 237.208L103.338 236.738C101.342 236.576 99.3668 236.389 97.414 236.177L97.3629 236.647C95.3664 236.429 93.3932 236.185 91.4447 235.915L91.5096 235.447C89.5238 235.171 87.5638 234.869 85.6313 234.539L85.5518 235.005C83.5692 234.666 81.6152 234.3 79.6914 233.906L79.7862 233.443C77.8195 233.04 75.8847 232.608 73.9834 232.148L73.8722 232.607C71.914 232.132 69.991 231.628 68.1051 231.094L68.2339 230.639C66.2997 230.091 64.405 229.512 62.5517 228.903L62.4041 229.352C60.487 228.721 58.6137 228.058 56.7866 227.362L56.9546 226.921C55.0746 226.206 53.244 225.456 51.4652 224.674L51.275 225.106C49.4243 224.292 47.629 223.442 45.8919 222.557L46.1063 222.136C44.3061 221.219 42.5691 220.265 40.8984 219.273L40.6574 219.68C38.9125 218.644 37.2388 217.569 35.6398 216.455L35.9099 216.067C34.2585 214.916 32.688 213.724 31.2022 212.492L30.9006 212.856C29.3382 211.56 27.868 210.219 26.4942 208.836L26.8295 208.503C25.4142 207.077 24.103 205.606 22.9005 204.091L22.5305 204.385C21.2765 202.805 20.1389 201.177 19.123 199.503L19.527 199.258C18.4969 197.56 17.5939 195.814 16.8233 194.022L16.3893 194.209C15.6031 192.381 14.9528 190.504 14.4444 188.582L14.9012 188.461C14.6506 187.513 14.4349 186.554 14.2549 185.584C14.0749 184.614 13.9321 183.641 13.826 182.667L13.3564 182.718C13.1411 180.741 13.075 178.757 13.153 176.768L13.6251 176.787C13.7016 174.838 13.9182 172.884 14.2704 170.93L13.8055 170.846C14.1529 168.918 14.6307 166.99 15.2343 165.066L15.6851 165.207C16.264 163.362 16.9602 161.518 17.7698 159.68L17.3375 159.489C18.1234 157.705 19.0149 155.926 20.0084 154.156L20.4204 154.388C21.3652 152.704 22.4034 151.028 23.532 149.361L23.1408 149.097C24.2336 147.483 25.41 145.879 26.6674 144.286L27.0381 144.579C28.242 143.054 29.5208 141.54 30.8721 140.038L30.521 139.722C31.825 138.273 33.1958 136.835 34.6312 135.412L34.9639 135.747C36.3436 134.378 37.7835 133.022 39.2817 131.68L38.9664 131.328C40.4225 130.024 41.9331 128.732 43.4963 127.456L43.7951 127.822C45.3063 126.588 46.8672 125.368 48.476 124.163L48.1928 123.785C49.7615 122.609 51.3754 121.449 53.0331 120.303L53.3017 120.692C54.9112 119.58 56.5622 118.483 58.2534 117.401L57.9988 117.003C59.6532 115.945 61.3456 114.902 63.0749 113.875L63.3162 114.281C65.0018 113.28 66.7226 112.294 68.4774 111.324L68.249 110.911C69.9707 109.96 71.725 109.024 73.5107 108.105L73.7269 108.525C75.4734 107.626 77.25 106.743 79.0558 105.876L78.8513 105.45C80.6278 104.597 82.4322 103.761 84.2636 102.942L84.4566 103.373C86.2529 102.569 88.0754 101.781 89.9229 101.011L89.7411 100.575C91.5625 99.8151 93.4082 99.0719 95.2774 98.3461L95.4484 98.7864C97.2815 98.0745 99.1372 97.3792 101.015 96.7012L100.854 96.2568C102.709 95.587 104.585 94.934 106.481 94.2986L106.631 94.7465C108.499 94.1204 110.387 93.5114 112.293 92.92L112.153 92.4688C114.04 91.8835 115.945 91.3156 117.868 90.7655L117.998 91.2196C119.896 90.6768 121.811 90.1513 123.742 89.6438L123.622 89.1869C125.536 88.684 127.466 88.1988 129.412 87.7318L129.522 88.1912C131.439 87.731 133.371 87.2886 135.317 86.8644L135.217 86.4028C137.148 85.982 139.093 85.5791 141.052 85.1947L141.143 85.6582C142.117 85.4669 143.095 85.2802 144.077 85.0981C145.058 84.916 146.038 84.7394 147.017 84.5682L146.935 84.1029C148.901 83.7591 150.862 83.4373 152.815 83.1373L152.887 83.6042C154.856 83.3019 156.818 83.0217 158.772 82.7635L158.711 82.2951C160.694 82.033 162.67 81.7935 164.637 81.5762L164.689 82.0458C166.674 81.8265 168.649 81.63 170.616 81.4559L170.574 80.9854C172.566 80.809 174.548 80.6556 176.519 80.525L176.551 80.9964C178.543 80.8643 180.523 80.7556 182.491 80.6698L182.471 80.1978C184.469 80.1107 186.454 80.0473 188.425 80.0071L188.435 80.4794C190.431 80.4387 192.412 80.422 194.379 80.4288L194.38 79.9564C196.386 79.9634 198.375 79.9949 200.348 80.0505L200.334 80.5227C202.335 80.5792 204.319 80.6605 206.284 80.7663L206.31 80.2946C208.313 80.4025 210.298 80.5359 212.262 80.6943L212.224 81.1652C214.22 81.3263 216.195 81.5133 218.148 81.7259L218.199 81.2563C220.196 81.4736 222.169 81.7176 224.117 81.9879L224.052 82.4559C226.038 82.7314 227.998 83.0342 229.931 83.3638L230.01 82.8981C231.993 83.2363 233.947 83.6028 235.871 83.9969L235.776 84.4597C237.743 84.8627 239.677 85.2947 241.579 85.7552L241.69 85.296C243.648 85.7703 245.571 86.2748 247.457 86.8089L247.328 87.2635C249.262 87.8113 251.157 88.3903 253.01 88.9999L253.158 88.5511C255.075 89.1817 256.948 89.845 258.776 90.5403L258.607 90.9818C260.487 91.6972 262.318 92.4466 264.097 93.229L264.287 92.7966C266.138 93.6106 267.933 94.4605 269.67 95.3455L269.456 95.7665C271.256 96.6836 272.993 97.6382 274.664 98.6295L274.905 98.2232C276.65 99.2584 278.323 100.334 279.922 101.448L279.652 101.836C281.304 102.986 282.874 104.179 284.36 105.411L284.661 105.047C286.224 106.343 287.694 107.683 289.068 109.067L288.733 109.4C290.148 110.825 291.459 112.296 292.662 113.811L293.032 113.518C294.286 115.097 295.423 116.725 296.439 118.4L296.035 118.645C297.065 120.343 297.968 122.089 298.739 123.881L299.173 123.694Z" stroke="white" stroke-opacity="0.16" stroke-width="0.94483" stroke-dasharray="6.14 6.14"/>
<path d="M249.736 45.9077C251.462 46.8985 253.108 48.0092 254.668 49.2422L254.376 49.6129C255.145 50.2206 255.893 50.8584 256.619 51.5265C257.345 52.1947 258.043 52.8871 258.712 53.6029L259.057 53.2802C260.416 54.7326 261.659 56.2806 262.79 57.9183L262.401 58.1867C263.509 59.7916 264.508 61.4844 265.399 63.2594L265.822 63.0474C266.7 64.798 267.475 66.6269 268.147 68.5287L267.701 68.686C268.345 70.5098 268.895 72.4023 269.35 74.3587L269.81 74.2517C270.252 76.1507 270.606 78.1085 270.873 80.1206L270.405 80.1828C270.659 82.0963 270.834 84.0602 270.931 86.0707L271.403 86.0479C271.497 87.9946 271.519 89.9838 271.468 92.0121L270.996 92.0003C270.948 93.9424 270.833 95.9211 270.654 97.9334L271.124 97.9755C270.95 99.9173 270.716 101.89 270.422 103.89L269.955 103.821C269.672 105.744 269.334 107.693 268.941 109.666L269.404 109.758C269.022 111.675 268.589 113.615 268.104 115.574L267.645 115.46C267.177 117.354 266.66 119.267 266.096 121.196L266.55 121.329C266 123.21 265.405 125.107 264.766 127.018L264.318 126.868C263.698 128.724 263.036 130.592 262.332 132.472L262.774 132.638C262.086 134.477 261.357 136.327 260.59 138.186L260.154 138.006C259.406 139.818 258.621 141.639 257.799 143.468L258.229 143.662C257.423 145.456 256.581 147.257 255.704 149.064L255.279 148.857C254.421 150.624 253.53 152.397 252.605 154.174L253.024 154.392C252.115 156.14 251.173 157.892 250.2 159.646L249.787 159.417C248.832 161.138 247.847 162.861 246.831 164.586L247.238 164.826C246.237 166.527 245.206 168.229 244.146 169.931L243.745 169.681C242.706 171.351 241.639 173.02 240.543 174.689L240.938 174.948C239.857 176.597 238.748 178.245 237.612 179.891L237.223 179.623C236.105 181.244 234.96 182.864 233.789 184.481L234.172 184.758C233.014 186.359 231.831 187.956 230.622 189.55L230.246 189.265C229.054 190.838 227.837 192.407 226.596 193.972L226.967 194.265C225.737 195.816 224.484 197.362 223.208 198.903L222.844 198.602C221.587 200.12 220.306 201.634 219.004 203.141L219.361 203.45C218.069 204.945 216.755 206.435 215.419 207.917L215.068 207.601C214.403 208.339 213.732 209.075 213.056 209.81C212.381 210.544 211.703 211.273 211.022 211.997L211.367 212.321C210 213.776 208.625 215.209 207.242 216.621L206.905 216.291C205.511 217.714 204.11 219.116 202.701 220.495L203.031 220.832C201.602 222.232 200.165 223.609 198.722 224.963L198.399 224.619C196.942 225.985 195.48 227.328 194.011 228.647L194.327 228.998C192.839 230.335 191.345 231.647 189.847 232.934L189.539 232.576C188.025 233.877 186.505 235.152 184.982 236.402L185.282 236.767C183.736 238.035 182.186 239.277 180.633 240.492L180.342 240.12C178.77 241.35 177.194 242.553 175.617 243.727L175.899 244.106C174.291 245.304 172.681 246.472 171.069 247.611L170.796 247.225C169.162 248.381 167.526 249.506 165.89 250.601L166.153 250.993C164.486 252.109 162.818 253.193 161.152 254.245L160.9 253.845C159.206 254.914 157.514 255.95 155.824 256.951L156.065 257.358C154.337 258.382 152.612 259.371 150.891 260.324L150.662 259.91C148.908 260.881 147.159 261.815 145.415 262.711L145.631 263.131C143.842 264.05 142.059 264.93 140.283 265.769L140.081 265.341C138.266 266.199 136.459 267.014 134.662 267.787L134.848 268.221C132.997 269.016 131.156 269.767 129.327 270.471L129.157 270.03C127.281 270.752 125.418 271.426 123.57 272.05L123.721 272.498C121.809 273.144 119.912 273.737 118.034 274.277L117.903 273.823C115.97 274.379 114.056 274.878 112.163 275.319L112.271 275.779C110.302 276.239 108.355 276.636 106.435 276.97L106.354 276.505C104.363 276.851 102.401 277.13 100.47 277.339L100.521 277.809C98.5035 278.028 96.5194 278.172 94.5716 278.24L94.5551 277.768C92.5435 277.838 90.5718 277.826 88.6438 277.732L88.6207 278.204C86.5934 278.105 84.613 277.915 82.6838 277.632L82.7523 277.165C80.7647 276.874 78.8331 276.484 76.9622 275.993L76.8424 276.45C74.8914 275.939 73.0044 275.319 71.1869 274.589L71.363 274.15C69.5201 273.41 67.7502 272.555 66.0587 271.584L65.8235 271.994C64.0976 271.003 62.4516 269.892 60.8913 268.659L61.1843 268.289C60.4152 267.681 59.6673 267.043 58.9411 266.375C58.2149 265.707 57.5172 265.015 56.8476 264.299L56.5026 264.621C55.1442 263.169 53.9005 261.621 52.7697 259.983L53.1585 259.715C52.0503 258.11 51.0515 256.417 50.1605 254.642L49.7383 254.854C48.8595 253.104 48.085 251.275 47.4132 249.373L47.8587 249.216C47.2144 247.392 46.6652 245.499 46.2099 243.543L45.7498 243.65C45.3078 241.751 44.9538 239.793 44.6866 237.781L45.1549 237.719C44.9007 235.805 44.7255 233.841 44.6283 231.831L44.1565 231.854C44.0624 229.907 44.041 227.918 44.0914 225.889L44.5637 225.901C44.6119 223.959 44.7264 221.981 44.9063 219.968L44.4357 219.926C44.6093 217.984 44.8435 216.012 45.1375 214.011L45.6049 214.08C45.8874 212.158 46.2256 210.209 46.6187 208.236L46.1554 208.144C46.5375 206.226 46.9712 204.287 47.4559 202.328L47.9145 202.441C48.3831 200.547 48.8996 198.635 49.4635 196.705L49.0101 196.573C49.5599 194.691 50.1545 192.794 50.7935 190.884L51.2415 191.033C51.8619 189.178 52.5243 187.309 53.2281 185.429L52.7857 185.264C53.4742 183.425 54.2023 181.575 54.9695 179.716L55.4062 179.896C56.1541 178.083 56.9392 176.262 57.7612 174.434L57.3304 174.24C58.1369 172.446 58.9789 170.645 59.8559 168.838L60.2809 169.044C61.1386 167.277 62.0299 165.505 62.9545 163.728L62.5355 163.51C63.445 161.762 64.3867 160.01 65.3601 158.255L65.7732 158.485C66.7279 156.764 67.7133 155.04 68.7289 153.315L68.3218 153.076C69.3231 151.375 70.3538 149.673 71.4135 147.971L71.8146 148.22C72.8539 146.551 73.9212 144.881 75.0163 143.212L74.6213 142.953C75.7032 141.304 76.812 139.657 77.9476 138.011L78.3364 138.279C79.4551 136.657 80.5999 135.037 81.7703 133.42L81.3876 133.143C82.5459 131.543 83.7292 129.945 84.9374 128.351L85.3139 128.637C86.5062 127.064 87.7228 125.495 88.9635 123.93L88.5933 123.636C89.8227 122.085 91.0756 120.539 92.3518 118.998L92.7157 119.3C93.9731 117.781 95.2533 116.268 96.5559 114.761L96.1984 114.452C97.4908 112.956 98.8051 111.467 100.141 109.984L100.492 110.301C101.157 109.563 101.828 108.826 102.503 108.092C103.179 107.357 103.857 106.628 104.537 105.904L104.193 105.581C105.56 104.126 106.935 102.692 108.317 101.28L108.655 101.611C110.049 100.187 111.45 98.786 112.859 97.4067L112.528 97.0691C113.958 95.6693 115.395 94.2922 116.838 92.9382L117.161 93.2827C118.617 91.9163 120.08 90.5735 121.549 89.2546L121.233 88.9031C122.721 87.5666 124.215 86.2546 125.713 84.9674L126.021 85.3257C127.535 84.0249 129.054 82.7496 130.577 81.4999L130.278 81.1347C131.824 79.8663 133.374 78.6244 134.927 77.4092L135.218 77.7813C136.79 76.5513 138.365 75.3489 139.943 74.1745L139.661 73.7956C141.269 72.5981 142.879 71.4295 144.491 70.2903L144.763 70.6761C146.398 69.5206 148.034 68.3954 149.669 67.3009L149.407 66.9083C151.074 65.7925 152.742 64.7085 154.408 63.6569L154.66 64.0564C156.354 62.9873 158.046 61.9517 159.736 60.9501L159.495 60.5437C161.223 59.5197 162.948 58.5309 164.669 57.5781L164.897 57.9913C166.651 57.0202 168.401 56.0864 170.145 55.1906L169.929 54.7703C171.718 53.8513 173.501 52.972 175.277 52.133L175.478 52.5601C177.293 51.7025 179.101 50.8871 180.898 50.1147L180.711 49.6806C182.562 48.8851 184.403 48.1349 186.233 47.4306L186.402 47.8715C188.278 47.1492 190.142 46.4755 191.99 45.8512L191.839 45.4036C193.751 44.7577 195.647 44.1644 197.526 43.6243L197.657 44.0783C199.59 43.5226 201.504 43.0237 203.397 42.5823L203.289 42.1222C205.258 41.663 207.204 41.2657 209.125 40.9314L209.206 41.3968C211.196 41.0503 213.159 40.7718 215.09 40.5623L215.039 40.0927C217.056 39.8739 219.04 39.7299 220.988 39.6619L221.005 40.134C223.016 40.0638 224.988 40.0752 226.916 40.1694L226.939 39.6976C228.966 39.7967 230.947 39.9867 232.876 40.2694L232.808 40.7368C234.795 41.028 236.727 41.418 238.598 41.9084L238.717 41.4515C240.668 41.9629 242.555 42.5827 244.373 43.313L244.197 43.7513C246.04 44.4917 247.81 45.3465 249.501 46.3174L249.736 45.9077Z" stroke="white" stroke-opacity="0.16" stroke-width="0.94483" stroke-dasharray="6.14 6.14"/>
<path d="M160.32 13.2522C162.289 12.9659 164.27 12.8234 166.259 12.83L166.257 13.3023C167.237 13.3056 168.219 13.3455 169.203 13.4227C170.187 13.4999 171.163 13.6137 172.132 13.7635L172.204 13.2966C174.169 13.6003 176.104 14.0501 178.004 14.6402L177.864 15.0914C179.727 15.6696 181.558 16.3845 183.354 17.2306L183.556 16.8032C185.328 17.6377 187.066 18.5982 188.769 19.6794L188.516 20.0782C190.148 21.115 191.749 22.2646 193.315 23.5225L193.611 23.1541C195.131 24.3751 196.618 25.6966 198.071 27.1143L197.741 27.4524C199.122 28.8007 200.473 30.2374 201.791 31.7589L202.148 31.4496C203.424 32.9228 204.669 34.4743 205.881 36.101L205.503 36.3833C206.664 37.9408 207.795 39.568 208.896 41.262L209.292 41.0045C210.355 42.6392 211.389 44.3354 212.392 46.0904L211.982 46.325C212.947 48.0118 213.884 49.7537 214.793 51.5482L215.215 51.3348C216.098 53.0789 216.954 54.8721 217.782 56.7125L217.352 56.9064C218.152 58.6855 218.927 60.509 219.675 62.3749L220.113 62.1992C220.842 64.0186 221.546 65.878 222.223 67.7756L221.778 67.9344C222.436 69.7769 223.068 71.6557 223.675 73.5692L224.126 73.4263C224.72 75.2982 225.289 77.2029 225.834 79.1391L225.379 79.2669C225.909 81.1542 226.416 83.0716 226.899 85.0176L227.357 84.9039C227.83 86.8132 228.28 88.7499 228.706 90.7126L228.244 90.8127C228.661 92.7324 229.054 94.6771 229.424 96.6456L229.888 96.5584C230.252 98.4949 230.593 100.454 230.91 102.435L230.444 102.51C230.755 104.453 231.044 106.418 231.31 108.402L231.779 108.339C232.041 110.295 232.281 112.27 232.498 114.263L232.029 114.315C232.242 116.269 232.433 118.242 232.602 120.231L233.073 120.191C233.24 122.156 233.385 124.137 233.508 126.133L233.037 126.162C233.158 128.128 233.258 130.109 233.336 132.104L233.808 132.085C233.885 134.059 233.94 136.047 233.974 138.046L233.501 138.054C233.535 140.028 233.547 142.014 233.537 144.011L234.009 144.013C234 145.992 233.969 147.982 233.916 149.982L233.444 149.969C233.392 151.94 233.32 153.921 233.226 155.911L233.698 155.933C233.604 157.907 233.49 159.89 233.354 161.882L232.883 161.85C232.816 162.841 232.743 163.834 232.665 164.829C232.587 165.824 232.504 166.816 232.416 167.806L232.886 167.848C232.709 169.836 232.513 171.812 232.297 173.777L231.828 173.725C231.61 175.705 231.373 177.673 231.116 179.628L231.585 179.689C231.325 181.673 231.045 183.644 230.745 185.6L230.278 185.528C229.976 187.502 229.655 189.462 229.314 191.406L229.779 191.488C229.434 193.458 229.069 195.412 228.685 197.35L228.222 197.258C227.834 199.216 227.426 201.157 227 203.081L227.461 203.183C227.028 205.135 226.576 207.069 226.104 208.984L225.645 208.871C225.168 210.809 224.671 212.728 224.156 214.625L224.612 214.749C224.086 216.684 223.541 218.598 222.976 220.489L222.524 220.354C221.951 222.272 221.359 224.167 220.748 226.038L221.198 226.184C220.575 228.092 219.932 229.974 219.271 231.83L218.826 231.672C218.154 233.558 217.462 235.418 216.751 237.249L217.191 237.42C216.465 239.292 215.718 241.135 214.953 242.947L214.518 242.763C213.738 244.61 212.938 246.425 212.119 248.206L212.549 248.404C211.709 250.231 210.849 252.024 209.97 253.78L209.548 253.569C208.65 255.364 207.732 257.121 206.795 258.838L207.209 259.065C206.244 260.833 205.26 262.56 204.255 264.244L203.85 264.002C202.82 265.728 201.77 267.408 200.702 269.041L201.097 269.3C199.992 270.988 198.866 272.626 197.722 274.211L197.339 273.934C196.161 275.565 194.964 277.139 193.747 278.655L194.116 278.951C192.851 280.528 191.565 282.042 190.261 283.491L189.909 283.175C188.558 284.676 187.186 286.107 185.796 287.464L186.126 287.802C184.675 289.219 183.203 290.558 181.713 291.814L181.408 291.453C179.869 292.75 178.311 293.958 176.736 295.075L177.009 295.46C175.353 296.634 173.678 297.707 171.986 298.676L171.751 298.266C170.008 299.264 168.248 300.15 166.473 300.919L166.661 301.353C164.811 302.155 162.944 302.833 161.063 303.38L160.931 302.927C159.024 303.482 157.104 303.903 155.174 304.183L155.242 304.651C153.273 304.937 151.292 305.08 149.304 305.073L149.305 304.601C148.325 304.597 147.343 304.557 146.359 304.48C145.375 304.403 144.399 304.289 143.43 304.14L143.358 304.606C141.393 304.303 139.459 303.853 137.558 303.263L137.698 302.812C135.835 302.233 134.005 301.519 132.208 300.672L132.007 301.1C130.234 300.265 128.496 299.305 126.793 298.224L127.047 297.825C125.414 296.788 123.813 295.638 122.247 294.381L121.951 294.749C120.431 293.528 118.944 292.206 117.491 290.789L117.821 290.451C116.44 289.102 115.089 287.666 113.772 286.144L113.415 286.453C112.139 284.98 110.894 283.429 109.681 281.802L110.06 281.52C108.899 279.962 107.767 278.335 106.666 276.641L106.27 276.898C105.207 275.264 104.174 273.568 103.17 271.813L103.58 271.578C102.615 269.891 101.678 268.149 100.769 266.355L100.348 266.568C99.4644 264.824 98.6082 263.031 97.7799 261.19L98.2107 260.997C97.41 259.218 96.6353 257.394 95.8875 255.528L95.449 255.704C94.7199 253.884 94.0164 252.025 93.3392 250.127L93.7841 249.969C93.1266 248.126 92.494 246.247 91.8868 244.334L91.4365 244.477C90.8426 242.605 90.2731 240.7 89.7287 238.764L90.1835 238.636C89.6528 236.749 89.146 234.831 88.6636 232.885L88.2051 232.999C87.7318 231.09 87.282 229.153 86.8563 227.19L87.318 227.09C86.9016 225.171 86.5083 223.226 86.1386 221.257L85.6743 221.345C85.3106 219.408 84.9697 217.449 84.6521 215.467L85.1185 215.393C84.807 213.45 84.518 211.485 84.2518 209.501L83.7836 209.564C83.5213 207.608 83.2812 205.633 83.0638 203.64L83.5334 203.588C83.3202 201.634 83.1289 199.661 82.9599 197.672L82.4891 197.712C82.3222 195.747 82.1769 193.766 82.0539 191.77L82.5254 191.741C82.4041 189.775 82.3044 187.794 82.2267 185.799L81.7546 185.818C81.6776 183.844 81.6221 181.856 81.5884 179.857L82.0608 179.849C82.0275 177.875 82.0156 175.889 82.0253 173.892L81.5529 173.89C81.5625 171.911 81.5934 169.921 81.6458 167.921L82.1181 167.934C82.1698 165.963 82.2425 163.982 82.3365 161.992L81.8646 161.97C81.9579 159.996 82.0722 158.013 82.2078 156.021L82.6791 156.053C82.7466 155.062 82.8193 154.069 82.8974 153.074C82.9755 152.079 83.0586 151.087 83.1466 150.097L82.676 150.055C82.8527 148.067 83.0493 146.091 83.2651 144.126L83.7347 144.178C83.9523 142.198 84.1895 140.23 84.4459 138.275L83.9775 138.214C84.2377 136.23 84.5177 134.259 84.8169 132.303L85.2839 132.375C85.5858 130.401 85.9074 128.441 86.2482 126.497L85.7828 126.415C86.1281 124.445 86.493 122.491 86.877 120.553L87.3404 120.645C87.7284 118.687 88.1359 116.746 88.5625 114.822L88.1013 114.72C88.5342 112.768 88.9867 110.834 89.4582 108.919L89.9169 109.032C90.3941 107.094 90.8909 105.175 91.4064 103.278L90.9506 103.154C91.4763 101.219 92.0216 99.3052 92.5859 97.4141L93.0386 97.5492C93.611 95.6309 94.2029 93.7359 94.8138 91.8651L94.3647 91.7185C94.9875 89.8112 95.6299 87.9289 96.2913 86.0728L96.7363 86.2314C97.4086 84.3447 98.1005 82.4852 98.8112 80.654L98.3708 80.483C99.0975 78.6108 99.8439 76.768 100.609 74.9559L101.045 75.1397C101.825 73.2928 102.624 71.478 103.443 69.6966L103.014 69.4994C103.853 67.6718 104.713 65.8792 105.592 64.123L106.014 64.3344C106.913 62.539 107.831 60.7819 108.768 59.0646L108.353 58.8383C109.318 57.0696 110.303 55.3427 111.307 53.6594L111.712 53.9013C112.742 52.1749 113.792 50.4946 114.86 48.8622L114.465 48.6035C115.57 46.9149 116.696 45.2771 117.84 43.6922L118.223 43.9688C119.401 42.338 120.599 40.7637 121.815 39.248L121.446 38.9524C122.712 37.3755 123.997 35.8613 125.302 34.4124L125.653 34.7285C127.005 33.227 128.376 31.7963 129.766 30.439L129.436 30.1011C130.888 28.6835 132.359 27.3452 133.85 26.0891L134.154 26.4503C135.693 25.153 137.251 23.9446 138.826 22.8283L138.553 22.4429C140.209 21.2691 141.884 20.1959 143.576 19.227L143.811 19.637C145.554 18.6389 147.314 17.7531 149.089 16.9837L148.901 16.5502C150.751 15.7479 152.618 15.0704 154.499 14.5226L154.631 14.9762C156.538 14.4208 158.458 14.0003 160.388 13.7197L160.32 13.2522Z" stroke="white" stroke-opacity="0.16" stroke-width="0.94483" stroke-dasharray="6.14 6.14"/>
<g filter="url(#filter0_d_2009_2229)">
<rect x="183.302" y="133.221" width="51.0262" height="51.0262" rx="25.5131" transform="rotate(90 183.302 133.221)" fill="black"/>
<path fill-rule="evenodd" clip-rule="evenodd" d="M163.477 149.461C161.784 149.461 160.412 150.834 160.412 152.527C160.412 154.22 161.784 155.592 163.477 155.592C165.17 155.592 166.543 154.22 166.543 152.527C166.543 150.834 165.17 149.461 163.477 149.461ZM157.625 152.527C157.625 149.295 160.245 146.675 163.477 146.675C166.709 146.675 169.329 149.295 169.329 152.527C169.329 155.759 166.709 158.379 163.477 158.379C160.245 158.379 157.625 155.759 157.625 152.527Z" fill="white"/>
<path fill-rule="evenodd" clip-rule="evenodd" d="M150.103 149.461C148.41 149.461 147.037 150.834 147.037 152.527C147.037 154.22 148.41 155.592 150.103 155.592C151.795 155.592 153.168 154.22 153.168 152.527C153.168 150.834 151.795 149.461 150.103 149.461ZM144.251 152.527C144.251 149.295 146.871 146.675 150.103 146.675C153.334 146.675 155.954 149.295 155.954 152.527C155.954 155.759 153.334 158.379 150.103 158.379C146.871 158.379 144.251 155.759 144.251 152.527Z" fill="white"/>
<path fill-rule="evenodd" clip-rule="evenodd" d="M163.477 162.837C161.784 162.837 160.412 164.209 160.412 165.902C160.412 167.595 161.784 168.968 163.477 168.968C165.17 168.968 166.543 167.595 166.543 165.902C166.543 164.209 165.17 162.837 163.477 162.837ZM157.625 165.902C157.625 162.67 160.245 160.05 163.477 160.05C166.709 160.05 169.329 162.67 169.329 165.902C169.329 169.134 166.709 171.754 163.477 171.754C160.245 171.754 157.625 169.134 157.625 165.902Z" fill="white"/>
<rect x="183.128" y="133.395" width="50.6785" height="50.6784" rx="25.3392" transform="rotate(90 183.128 133.395)" stroke="#212121" stroke-width="0.347747"/>
</g>
<g filter="url(#filter1_b_2009_2229)">
<rect x="26.9219" y="258.027" width="48.8718" height="48.8718" rx="24.4359" transform="rotate(-30 26.9219 258.027)" fill="url(#paint0_linear_2009_2229)" fill-opacity="0.1"/>
<g filter="url(#filter2_b_2009_2229)">
<ellipse cx="60.3024" cy="266.972" rx="24.4359" ry="24.4359" transform="rotate(-30 60.3024 266.972)" fill="white" fill-opacity="0.06"/>
</g>
<path d="M67.7511 279.062H52.6512C51.6888 279.062 50.9089 278.282 50.9089 277.32L50.9089 256.412C50.9089 255.45 51.6888 254.67 52.6512 254.67H63.6857L69.4934 260.478L69.4934 277.32C69.4934 278.282 68.7134 279.062 67.7511 279.062Z" fill="white"/>
<path d="M69.4914 260.477H63.6837L63.6837 254.669L69.4914 260.477Z" fill="#2B2B2B"/>
<path d="M63.6836 260.479L69.4913 266.286V260.479H63.6836Z" fill="white" fill-opacity="0.8"/>
<path d="M64.2659 266.284H56.1352H54.9736V267.446V268.607V269.769V270.93L54.9736 272.092V273.253V274.415H65.4274V273.253V272.092V270.93V269.769V268.607V267.446V266.284H64.2659ZM56.1352 267.446H58.4582V268.607H56.1352V267.446ZM56.1352 269.769H58.4582V270.93H56.1352V269.769ZM56.1352 272.092H58.4582V273.253H56.1352V272.092ZM64.2659 273.253H59.6198L59.6198 272.092H64.2659V273.253ZM64.2659 270.93H59.6198V269.769H64.2659V270.93ZM64.2659 268.607H59.6198V267.446H64.2659V268.607Z" fill="#2B2B2B"/>
<rect x="27.0788" y="258.069" width="48.642" height="48.642" rx="24.321" transform="rotate(-30 27.0788 258.069)" stroke="url(#paint1_linear_2009_2229)" stroke-width="0.229775"/>
</g>
<g filter="url(#filter3_b_2009_2229)">
<rect x="173.843" y="31.2688" width="48.8718" height="48.8718" rx="24.4359" transform="rotate(-30 173.843 31.2688)" fill="url(#paint2_linear_2009_2229)" fill-opacity="0.1"/>
<g filter="url(#filter4_b_2009_2229)">
<ellipse cx="207.223" cy="40.213" rx="24.4359" ry="24.4359" transform="rotate(-30 207.223 40.213)" fill="white" fill-opacity="0.06"/>
</g>
<path d="M207.527 27.8684C200.685 27.8684 195.138 33.4159 195.138 40.2581C195.138 46.0637 199.135 50.9215 204.525 52.2658C204.467 52.0985 204.43 51.9044 204.43 51.6638L204.43 49.5462C203.927 49.5462 203.085 49.5462 202.873 49.5462C202.025 49.5462 201.272 49.1818 200.906 48.5045C200.5 47.7518 200.43 46.6006 199.424 45.8964C199.126 45.6621 199.353 45.3947 199.697 45.4308C200.332 45.6105 200.859 46.0462 201.354 46.6925C201.848 47.3398 202.08 47.4865 203.002 47.4865C203.449 47.4865 204.118 47.4606 204.748 47.3615C205.087 46.5015 205.672 45.7096 206.387 45.3358C202.262 44.9115 200.293 42.8589 200.293 40.0723C200.293 38.8725 200.804 37.712 201.672 36.7343C201.387 35.7637 201.029 33.7845 201.782 33.0308C203.638 33.0308 204.76 34.2346 205.03 34.5599C205.955 34.2429 206.971 34.0633 208.038 34.0633C209.108 34.0633 210.128 34.2429 211.055 34.5619C211.322 34.2388 212.445 33.0308 214.306 33.0308C215.061 33.7855 214.699 35.773 214.411 36.7415C215.274 37.7172 215.782 38.8746 215.782 40.0723C215.782 42.8568 213.816 44.9084 209.697 45.3348C210.83 45.9264 211.657 47.5887 211.657 48.8411V51.6638C211.657 51.7712 211.633 51.8487 211.621 51.9406C216.449 50.2483 219.917 45.6641 219.917 40.2581C219.917 33.4159 214.37 27.8684 207.527 27.8684Z" fill="white"/>
<rect x="174" y="31.3109" width="48.642" height="48.642" rx="24.321" transform="rotate(-30 174 31.3109)" stroke="url(#paint3_linear_2009_2229)" stroke-width="0.229775"/>
</g>
<g filter="url(#filter5_b_2009_2229)">
<rect x="51.0153" y="101.658" width="48.8718" height="48.8718" rx="24.4359" transform="rotate(-30 51.0153 101.658)" fill="url(#paint4_linear_2009_2229)" fill-opacity="0.1"/>
<g filter="url(#filter6_b_2009_2229)">
<ellipse cx="84.3946" cy="110.603" rx="24.4359" ry="24.4359" transform="rotate(-30 84.3946 110.603)" fill="white" fill-opacity="0.06"/>
</g>
<path d="M84.312 98.629C81.9694 101.001 81.9546 104.848 84.312 107.205L87.9118 110.805L85.6998 113.017C87.4045 114.722 88.1706 117.037 88.0076 119.285L92.1997 115.093L95.8072 111.485C96.1841 111.109 96.1831 110.5 95.8072 110.124L88.5999 102.917L84.312 98.629ZM80.6164 102.325L76.4243 106.517L76.3035 106.639L72.8187 110.122C72.4428 110.499 72.4428 111.108 72.8187 111.485L83.298 121.964L84.312 122.98C86.6546 120.608 86.6694 116.762 84.312 114.405L80.7122 110.805L82.9242 108.593C81.2195 106.887 80.4534 104.572 80.6164 102.325Z" fill="white"/>
<rect x="51.1722" y="101.7" width="48.642" height="48.642" rx="24.321" transform="rotate(-30 51.1722 101.7)" stroke="url(#paint5_linear_2009_2229)" stroke-width="0.229775"/>
</g>
<g filter="url(#filter7_b_2009_2229)">
<rect x="158.726" y="221.18" width="48.8718" height="48.8718" rx="24.4359" transform="rotate(-30 158.726 221.18)" fill="url(#paint6_linear_2009_2229)" fill-opacity="0.1"/>
<g filter="url(#filter8_b_2009_2229)">
<ellipse cx="192.106" cy="230.125" rx="24.4359" ry="24.4359" transform="rotate(-30 192.106 230.125)" fill="white" fill-opacity="0.06"/>
</g>
<path d="M196.77 221.005C196.77 219.668 195.687 218.585 194.35 218.585C193.013 218.585 191.93 219.668 191.93 221.005C191.93 221.775 191.93 226.04 191.93 226.812C191.93 228.149 193.013 229.232 194.35 229.232C195.687 229.232 196.77 228.149 196.77 226.812C196.77 226.04 196.77 221.775 196.77 221.005ZM202.578 226.812C202.578 228.149 201.495 229.232 200.158 229.232C199.557 229.232 197.738 229.232 197.738 229.232C197.738 229.232 197.738 227.548 197.738 226.812C197.738 225.476 198.821 224.393 200.158 224.393C201.495 224.393 202.578 225.476 202.578 226.812ZM200.158 235.04C201.495 235.04 202.578 233.957 202.578 232.62C202.578 231.283 201.495 230.2 200.158 230.2C199.387 230.2 195.123 230.2 194.35 230.2C193.013 230.2 191.93 231.283 191.93 232.62C191.93 233.957 193.013 235.04 194.35 235.04C195.123 235.04 199.387 235.04 200.158 235.04ZM194.35 240.848C193.013 240.848 191.93 239.765 191.93 238.428C191.93 237.827 191.93 236.008 191.93 236.008C191.93 236.008 193.615 236.008 194.35 236.008C195.687 236.008 196.77 237.091 196.77 238.428C196.77 239.765 195.687 240.848 194.35 240.848ZM186.123 238.428C186.123 239.765 187.206 240.848 188.543 240.848C189.879 240.848 190.962 239.765 190.962 238.428C190.962 237.657 190.962 233.393 190.962 232.62C190.962 231.283 189.879 230.2 188.543 230.2C187.206 230.2 186.123 231.283 186.123 232.62C186.123 233.393 186.123 237.657 186.123 238.428ZM180.315 232.62C180.315 231.283 181.398 230.2 182.735 230.2C183.336 230.2 185.155 230.2 185.155 230.2C185.155 230.2 185.155 231.885 185.155 232.62C185.155 233.957 184.072 235.04 182.735 235.04C181.398 235.04 180.315 233.957 180.315 232.62ZM182.735 224.393C181.398 224.393 180.315 225.476 180.315 226.812C180.315 228.149 181.398 229.232 182.735 229.232C183.505 229.232 187.77 229.232 188.543 229.232C189.879 229.232 190.962 228.149 190.962 226.812C190.962 225.476 189.879 224.393 188.543 224.393C187.77 224.393 183.505 224.393 182.735 224.393ZM188.543 218.585C189.879 218.585 190.962 219.668 190.962 221.005C190.962 221.606 190.962 223.425 190.962 223.425C190.962 223.425 189.278 223.425 188.543 223.425C187.206 223.425 186.123 222.342 186.123 221.005C186.123 219.668 187.206 218.585 188.543 218.585Z" fill="white"/>
<rect x="158.883" y="221.222" width="48.642" height="48.642" rx="24.321" transform="rotate(-30 158.883 221.222)" stroke="url(#paint7_linear_2009_2229)" stroke-width="0.229775"/>
</g>
<g filter="url(#filter9_b_2009_2229)">
<rect x="261.24" y="117.248" width="48.8718" height="48.8718" rx="24.4359" transform="rotate(-30 261.24 117.248)" fill="url(#paint8_linear_2009_2229)" fill-opacity="0.1"/>
<g filter="url(#filter10_b_2009_2229)">
<ellipse cx="294.62" cy="126.192" rx="24.4359" ry="24.4359" transform="rotate(-30 294.62 126.192)" fill="white" fill-opacity="0.06"/>
</g>
<path d="M297.781 114.808H289.421C288.813 114.808 288.321 115.3 288.321 115.907V120.485H297.781V114.808Z" fill="white" fill-opacity="0.6"/>
<path d="M288.321 131.87V136.412C288.321 137.019 288.813 137.512 289.42 137.512H297.781V131.87H288.321Z" fill="white"/>
<path d="M288.32 120.485H297.78V126.163H288.32V120.485Z" fill="white" fill-opacity="0.8"/>
<path d="M288.32 126.163H297.78V131.871H288.32V126.163Z" fill="white" fill-opacity="0.95"/>
<path d="M306.14 114.809H297.78V120.487H307.24V115.909C307.24 115.302 306.747 114.809 306.14 114.809Z" fill="white" fill-opacity="0.3"/>
<path d="M297.781 131.87V137.512H306.141C306.748 137.512 307.24 137.019 307.24 136.413V131.871L297.781 131.87Z" fill="white" fill-opacity="0.85"/>
<path d="M297.78 120.487H307.24V126.164H297.78V120.487Z" fill="white" fill-opacity="0.6"/>
<path d="M297.781 126.166H307.24V131.873H297.781V126.166Z" fill="white" fill-opacity="0.75"/>
<path d="M293.568 132.466H283.075C282.49 132.466 282.015 131.991 282.015 131.406V120.913C282.015 120.327 282.49 119.853 283.075 119.853H293.568C294.153 119.853 294.628 120.327 294.628 120.913V131.406C294.628 131.991 294.153 132.466 293.568 132.466Z" fill="white"/>
<path d="M285.678 123.007H287.183L288.404 125.374L289.694 123.007H291.1L289.163 126.16L291.144 129.313H289.661L288.33 126.835L287.005 129.313H285.501L287.514 126.149L285.678 123.007Z" fill="#17152B"/>
<rect x="261.397" y="117.29" width="48.642" height="48.642" rx="24.321" transform="rotate(-30 261.397 117.29)" stroke="url(#paint9_linear_2009_2229)" stroke-width="0.229775"/>
</g>
<ellipse cx="58.1069" cy="117.631" rx="2.83449" ry="2.83449" fill="#333333" fill-opacity="0.9"/>
<ellipse cx="105.821" cy="94.9555" rx="2.83449" ry="2.83449" fill="#333333" fill-opacity="0.9"/>
<ellipse cx="220.145" cy="63.7758" rx="2.83449" ry="2.83449" fill="#333333" fill-opacity="0.9"/>
<ellipse cx="189.438" cy="20.7866" rx="2.83449" ry="2.83449" fill="#333333" fill-opacity="0.9"/>
<ellipse cx="282.032" cy="102.514" rx="2.83449" ry="2.83449" fill="#333333" fill-opacity="0.9"/>
<ellipse cx="299.511" cy="153.063" rx="2.83449" ry="2.83449" fill="#333333" fill-opacity="0.9"/>
<ellipse cx="211.169" cy="212.115" rx="2.83449" ry="2.83449" fill="#333333" fill-opacity="0.9"/>
<ellipse cx="171.014" cy="246.6" rx="2.83449" ry="2.83449" fill="#333333" fill-opacity="0.9"/>
<ellipse cx="85.0347" cy="278.253" rx="2.83449" ry="2.83449" fill="#333333" fill-opacity="0.9"/>
<ellipse cx="45.8242" cy="244.239" rx="2.83449" ry="2.83449" fill="#333333" fill-opacity="0.9"/>
<defs>
<filter id="filter0_d_2009_2229" x="121.844" y="122.788" width="71.891" height="71.8911" filterUnits="userSpaceOnUse" color-interpolation-filters="sRGB">
<feFlood flood-opacity="0" result="BackgroundImageFix"/>
<feColorMatrix in="SourceAlpha" type="matrix" values="0 0 0 0 0 0 0 0 0 0 0 0 0 0 0 0 0 0 127 0" result="hardAlpha"/>
<feOffset/>
<feGaussianBlur stdDeviation="5.2162"/>
<feColorMatrix type="matrix" values="0 0 0 0 1 0 0 0 0 1 0 0 0 0 1 0 0 0 0.3 0"/>
<feBlend mode="normal" in2="BackgroundImageFix" result="effect1_dropShadow_2009_2229"/>
<feBlend mode="normal" in="SourceGraphic" in2="effect1_dropShadow_2009_2229" result="shape"/>
</filter>
<filter id="filter1_b_2009_2229" x="20.0286" y="226.698" width="80.5466" height="80.5466" filterUnits="userSpaceOnUse" color-interpolation-filters="sRGB">
<feFlood flood-opacity="0" result="BackgroundImageFix"/>
<feGaussianBlur in="BackgroundImageFix" stdDeviation="3.44663"/>
<feComposite in2="SourceAlpha" operator="in" result="effect1_backgroundBlur_2009_2229"/>
<feBlend mode="normal" in="SourceGraphic" in2="effect1_backgroundBlur_2009_2229" result="shape"/>
</filter>
<filter id="filter2_b_2009_2229" x="28.9692" y="235.639" width="62.6665" height="62.6665" filterUnits="userSpaceOnUse" color-interpolation-filters="sRGB">
<feFlood flood-opacity="0" result="BackgroundImageFix"/>
<feGaussianBlur in="BackgroundImageFix" stdDeviation="3.44663"/>
<feComposite in2="SourceAlpha" operator="in" result="effect1_backgroundBlur_2009_2229"/>
<feBlend mode="normal" in="SourceGraphic" in2="effect1_backgroundBlur_2009_2229" result="shape"/>
</filter>
<filter id="filter3_b_2009_2229" x="166.95" y="-0.0603719" width="80.5466" height="80.5466" filterUnits="userSpaceOnUse" color-interpolation-filters="sRGB">
<feFlood flood-opacity="0" result="BackgroundImageFix"/>
<feGaussianBlur in="BackgroundImageFix" stdDeviation="3.44663"/>
<feComposite in2="SourceAlpha" operator="in" result="effect1_backgroundBlur_2009_2229"/>
<feBlend mode="normal" in="SourceGraphic" in2="effect1_backgroundBlur_2009_2229" result="shape"/>
</filter>
<filter id="filter4_b_2009_2229" x="175.89" y="8.87969" width="62.6665" height="62.6665" filterUnits="userSpaceOnUse" color-interpolation-filters="sRGB">
<feFlood flood-opacity="0" result="BackgroundImageFix"/>
<feGaussianBlur in="BackgroundImageFix" stdDeviation="3.44663"/>
<feComposite in2="SourceAlpha" operator="in" result="effect1_backgroundBlur_2009_2229"/>
<feBlend mode="normal" in="SourceGraphic" in2="effect1_backgroundBlur_2009_2229" result="shape"/>
</filter>
<filter id="filter5_b_2009_2229" x="44.122" y="70.3292" width="80.5466" height="80.5466" filterUnits="userSpaceOnUse" color-interpolation-filters="sRGB">
<feFlood flood-opacity="0" result="BackgroundImageFix"/>
<feGaussianBlur in="BackgroundImageFix" stdDeviation="3.44663"/>
<feComposite in2="SourceAlpha" operator="in" result="effect1_backgroundBlur_2009_2229"/>
<feBlend mode="normal" in="SourceGraphic" in2="effect1_backgroundBlur_2009_2229" result="shape"/>
</filter>
<filter id="filter6_b_2009_2229" x="53.0614" y="79.2693" width="62.6665" height="62.6665" filterUnits="userSpaceOnUse" color-interpolation-filters="sRGB">
<feFlood flood-opacity="0" result="BackgroundImageFix"/>
<feGaussianBlur in="BackgroundImageFix" stdDeviation="3.44663"/>
<feComposite in2="SourceAlpha" operator="in" result="effect1_backgroundBlur_2009_2229"/>
<feBlend mode="normal" in="SourceGraphic" in2="effect1_backgroundBlur_2009_2229" result="shape"/>
</filter>
<filter id="filter7_b_2009_2229" x="151.833" y="189.85" width="80.5466" height="80.5466" filterUnits="userSpaceOnUse" color-interpolation-filters="sRGB">
<feFlood flood-opacity="0" result="BackgroundImageFix"/>
<feGaussianBlur in="BackgroundImageFix" stdDeviation="3.44663"/>
<feComposite in2="SourceAlpha" operator="in" result="effect1_backgroundBlur_2009_2229"/>
<feBlend mode="normal" in="SourceGraphic" in2="effect1_backgroundBlur_2009_2229" result="shape"/>
</filter>
<filter id="filter8_b_2009_2229" x="160.773" y="198.791" width="62.6665" height="62.6665" filterUnits="userSpaceOnUse" color-interpolation-filters="sRGB">
<feFlood flood-opacity="0" result="BackgroundImageFix"/>
<feGaussianBlur in="BackgroundImageFix" stdDeviation="3.44663"/>
<feComposite in2="SourceAlpha" operator="in" result="effect1_backgroundBlur_2009_2229"/>
<feBlend mode="normal" in="SourceGraphic" in2="effect1_backgroundBlur_2009_2229" result="shape"/>
</filter>
<filter id="filter9_b_2009_2229" x="254.347" y="85.9189" width="80.5466" height="80.5466" filterUnits="userSpaceOnUse" color-interpolation-filters="sRGB">
<feFlood flood-opacity="0" result="BackgroundImageFix"/>
<feGaussianBlur in="BackgroundImageFix" stdDeviation="3.44663"/>
<feComposite in2="SourceAlpha" operator="in" result="effect1_backgroundBlur_2009_2229"/>
<feBlend mode="normal" in="SourceGraphic" in2="effect1_backgroundBlur_2009_2229" result="shape"/>
</filter>
<filter id="filter10_b_2009_2229" x="263.287" y="94.8589" width="62.6665" height="62.6665" filterUnits="userSpaceOnUse" color-interpolation-filters="sRGB">
<feFlood flood-opacity="0" result="BackgroundImageFix"/>
<feGaussianBlur in="BackgroundImageFix" stdDeviation="3.44663"/>
<feComposite in2="SourceAlpha" operator="in" result="effect1_backgroundBlur_2009_2229"/>
<feBlend mode="normal" in="SourceGraphic" in2="effect1_backgroundBlur_2009_2229" result="shape"/>
</filter>
<linearGradient id="paint0_linear_2009_2229" x1="51.3578" y1="258.027" x2="51.3578" y2="306.899" gradientUnits="userSpaceOnUse">
<stop stop-color="#D9D9D9"/>
<stop offset="1" stop-color="#D9D9D9" stop-opacity="0"/>
</linearGradient>
<linearGradient id="paint1_linear_2009_2229" x1="51.3578" y1="258.027" x2="51.3578" y2="306.899" gradientUnits="userSpaceOnUse">
<stop stop-color="white" stop-opacity="0.63"/>
<stop offset="1" stop-color="white" stop-opacity="0.33"/>
</linearGradient>
<linearGradient id="paint2_linear_2009_2229" x1="198.279" y1="31.2688" x2="198.279" y2="80.1406" gradientUnits="userSpaceOnUse">
<stop stop-color="#D9D9D9"/>
<stop offset="1" stop-color="#D9D9D9" stop-opacity="0"/>
</linearGradient>
<linearGradient id="paint3_linear_2009_2229" x1="198.279" y1="31.2688" x2="198.279" y2="80.1406" gradientUnits="userSpaceOnUse">
<stop stop-color="white" stop-opacity="0.63"/>
<stop offset="1" stop-color="white" stop-opacity="0.33"/>
</linearGradient>
<linearGradient id="paint4_linear_2009_2229" x1="75.4512" y1="101.658" x2="75.4512" y2="150.53" gradientUnits="userSpaceOnUse">
<stop stop-color="#D9D9D9"/>
<stop offset="1" stop-color="#D9D9D9" stop-opacity="0"/>
</linearGradient>
<linearGradient id="paint5_linear_2009_2229" x1="75.4512" y1="101.658" x2="75.4512" y2="150.53" gradientUnits="userSpaceOnUse">
<stop stop-color="white" stop-opacity="0.63"/>
<stop offset="1" stop-color="white" stop-opacity="0.33"/>
</linearGradient>
<linearGradient id="paint6_linear_2009_2229" x1="183.162" y1="221.18" x2="183.162" y2="270.051" gradientUnits="userSpaceOnUse">
<stop stop-color="#D9D9D9"/>
<stop offset="1" stop-color="#D9D9D9" stop-opacity="0"/>
</linearGradient>
<linearGradient id="paint7_linear_2009_2229" x1="183.162" y1="221.18" x2="183.162" y2="270.051" gradientUnits="userSpaceOnUse">
<stop stop-color="white" stop-opacity="0.63"/>
<stop offset="1" stop-color="white" stop-opacity="0.33"/>
</linearGradient>
<linearGradient id="paint8_linear_2009_2229" x1="285.676" y1="117.248" x2="285.676" y2="166.12" gradientUnits="userSpaceOnUse">
<stop stop-color="#D9D9D9"/>
<stop offset="1" stop-color="#D9D9D9" stop-opacity="0"/>
</linearGradient>
<linearGradient id="paint9_linear_2009_2229" x1="285.676" y1="117.248" x2="285.676" y2="166.12" gradientUnits="userSpaceOnUse">
<stop stop-color="white" stop-opacity="0.63"/>
<stop offset="1" stop-color="white" stop-opacity="0.33"/>
</linearGradient>
</defs>
</svg>
